<?xml version="1.0" encoding="UTF-8"?>
<svg width="30px" height="33px" viewBox="0 0 30 33" version="1.1" xmlns="http://www.w3.org/2000/svg" xmlns:xlink="http://www.w3.org/1999/xlink">
    <g id="Page-1" stroke="none" stroke-width="1" fill="none" fill-rule="evenodd">
        <g id="Report-Infographic-Banner-" transform="translate(-39.000000, -18.000000)" fill="#FFFFFF" fill-rule="nonzero">
            <g id="Group" transform="translate(39.000000, 18.000000)">
                <path d="M14.6142857,0 C12.9981671,0 11.6340177,0.899110862 9.60931412,1.94604768 C7.58461058,2.9929845 4.86960883,4.2605804 0.629200487,5.19636136 L0.114285714,5.32057716 L0.114285714,5.83814304 C0.114285714,15.9877108 3.65398478,22.7698456 7.19951299,26.9755332 C10.7450411,31.1812209 14.34653,32.8550816 14.34653,32.8550816 L14.6348823,33 L14.9232346,32.8550816 C14.9232346,32.8550816 29.1142857,25.4853278 29.1142857,5.83814304 L29.1142857,5.32057716 L28.5993709,5.19636136 C24.3589626,4.2605804 21.6439609,2.9929845 19.6192573,1.94604768 C17.5945538,0.899110862 16.2304043,0 14.6142857,0 Z M14.6142857,1.32496863 C15.6991217,1.32496863 16.9538699,2.05672854 19.0219562,3.12609787 C20.9855719,4.14144743 23.7494663,5.3860856 27.7549107,6.33500627 C27.5139978,24.3008959 15.4410579,31.039479 14.5936891,31.4887077 C14.1854212,31.289443 11.3325376,29.8565828 8.18814935,26.1267252 C4.87513596,22.1968457 1.59460785,15.8741014 1.47366071,6.33500627 C5.47910512,5.3860856 8.24299956,4.14144743 10.2066153,3.12609787 C12.2747015,2.05672854 13.5294498,1.32496863 14.6142857,1.32496863 Z" id="Shape"></path>
            </g>
        </g>
    </g>
</svg>
